PathFileType	4	(X/Y/Z)	C:/Users/opensim2020/Desktop/walking_exp_matlab/subject06_walking12_straigt_02.trc																																																																																																																																														
DataRate	CameraRate	NumFrames	NumMarkers	Units	OrigDataRate	OrigDataStartFrame	OrigNumFrames																																																																																																																																										
100	100	6	48	mm	100	1440	215																																																																																																																																										
Frame#	Time	LFHD			RFHD			LBHD			RBHD			C7			T10			CLAV			STRN			RBAK			LSHO			LUPA			LELB			LFRM			LWRA			LWRB			LFIN			RSHO			RUPA			RELB			RFRM			RWRA			RWRB			RFIN			LASI			RASI			LPSI			RPSI			LTHI			LKNE			LTIB			LANK			LHEE			LTOE			RTHI			RKNE			RTIB			RANK			RHEE			RTOE			*39			*40			*41			*42			*43			*44			*45			*46			*47		
		X1	Y1	Z1	X2	Y2	Z2	X3	Y3	Z3	X4	Y4	Z4	X5	Y5	Z5	X6	Y6	Z6	X7	Y7	Z7	X8	Y8	Z8	X9	Y9	Z9	X10	Y10	Z10	X11	Y11	Z11	X12	Y12	Z12	X13	Y13	Z13	X14	Y14	Z14	X15	Y15	Z15	X16	Y16	Z16	X17	Y17	Z17	X18	Y18	Z18	X19	Y19	Z19	X20	Y20	Z20	X21	Y21	Z21	X22	Y22	Z22	X23	Y23	Z23	X24	Y24	Z24	X25	Y25	Z25	X26	Y26	Z26	X27	Y27	Z27	X28	Y28	Z28	X29	Y29	Z29	X30	Y30	Z30	X31	Y31	Z31	X32	Y32	Z32	X33	Y33	Z33	X34	Y34	Z34	X35	Y35	Z35	X36	Y36	Z36	X37	Y37	Z37	X38	Y38	Z38	X39	Y39	Z39	X40	Y40	Z40	X41	Y41	Z41	X42	Y42	Z42	X43	Y43	Z43	X44	Y44	Z44	X45	Y45	Z45	X46	Y46	Z46	X47	Y47	Z47	X48	Y48	Z48
																																																																																																																																																	
1	0	-1316.3634	1674.82654	-1442.521	-1318.50403	1660.0957	-1311.18018	-1449.38184	1619.30017	-1446.11292	-1450.14441	1610.57227	-1317.68066	-1449.63794	1458.9718	-1388.75183	-1485.2854	1131.39563	-1375.34265	-1338.33911	1383.06287	-1390.93359	-1299.64685	1206.7467	-1395.90894	-1519.97461	1290.28796	-1304.24158	-1402.24646	1412.43018	-1551.29272	-1432.10291	1210.06885	-1615.53857	-1452.59595	1099.29248	-1620.87817	-1448.50989	948.54095	-1640.24792	-1397.98816	828.39777	-1599.72986	-1461.84973	829.33252	-1630.78662	-1431.39636	743.66034	-1631.88953	-1379.79773	1417.36047	-1228.68872	-1392.00647	1217.06372	-1139.26404	-1360.38086	1098.87012	-1127.06519	-1305.82666	992.09973	-1116.4436	-1202.79163	886.6236	-1161.03284	-1248.96582	866.97504	-1116.42041	-1185.76477	811.9245	-1120.39758	-1311.64807	972.41718	-1488.30725	-1308.76892	972.36383	-1269.96472	-1472.42273	995.96118	-1460.41711	-1461.10938	997.7489	-1291.62378	-1301.89954	670.84198	-1565.90857	-1242.93372	518.37054	-1548.1272	-1346.60437	289.99164	-1542.28613	-1399.65479	124.99866	-1507.8656	-1433.3512	116.69585	-1455.14795	-1275.65625	57.14983	-1532.89197	-1370.13391	633.5083	-1235.94788	-1372.72156	509.17145	-1267.16895	-1451.44031	251.55244	-1286.84082	-1490.59717	73.50143	-1345.4165	-1531.40369	51.48118	-1391.75171	-1339.94055	36.83371	-1342.42737	-1417.74072	1711.10596	-1383.44653	NaN	NaN	NaN	NaN	NaN	NaN	NaN	NaN	NaN	NaN	NaN	NaN	NaN	NaN	NaN	NaN	NaN	NaN	NaN	NaN	NaN	NaN	NaN	NaN
2	0.01	-1306.81311	1673.92615	-1443.81958	-1309.06396	1659.45557	-1312.41418	-1439.79724	1618.29236	-1447.35303	-1440.63428	1609.82068	-1318.87964	-1440.00647	1458.1864	-1389.65784	-1475.73682	1130.5647	-1375.9126	-1328.75183	1382.16577	-1391.61682	-1290.12341	1205.87183	-1396.07874	-1510.4873	1289.69177	-1304.74475	-1392.5094	1411.30261	-1552.06897	-1424.93457	1209.32813	-1615.95435	-1447.09668	1098.91931	-1620.83252	-1445.93213	947.98029	-1639.31543	-1399.56763	826.31982	-1597.13513	-1462.24109	829.17828	-1629.63159	-1433.89233	742.79169	-1629.70056	-1370.32788	1416.8385	-1229.56396	-1381.43811	1216.83008	-1139.66589	-1348.41809	1099.05151	-1127.08862	-1291.60889	993.70844	-1117.01746	-1185.8833	891.29291	-1162.27283	-1231.34009	870.36041	-1117.61609	-1166.5741	816.95532	-1121.78101	-1301.80725	971.92175	-1488.31128	-1299.99036	971.34235	-1270.12427	-1462.57324	995.15796	-1461.34009	-1452.04932	996.81903	-1292.48474	-1290.81628	670.74487	-1566.90662	-1231.16223	518.43646	-1548.802	-1324.64783	284.82123	-1543.83313	-1368.78931	117.09653	-1509.81555	-1402.6333	107.36273	-1457.59619	-1241.35571	56.60801	-1535.13684	-1363.42505	632.59747	-1236.74487	-1367.56287	508.26089	-1267.69824	-1448.96216	251.35126	-1287.08997	-1490.03992	73.58023	-1345.55151	-1531.31775	51.69013	-1391.70764	-1339.94275	36.95683	-1342.23303	-1408.26831	1710.24304	-1384.89087	NaN	NaN	NaN	NaN	NaN	NaN	NaN	NaN	NaN	NaN	NaN	NaN	NaN	NaN	NaN	NaN	NaN	NaN	NaN	NaN	NaN	NaN	NaN	NaN
3	0.02	-1297.22827	1672.90747	-1445.05261	-1299.50281	1658.76819	-1313.68945	-1430.15442	1617.18933	-1448.60535	-1431.12634	1609.0166	-1320.10437	-1430.32385	1457.22864	-1390.51379	-1466.1012	1129.59839	-1376.47437	-1319.0564	1381.23865	-1392.32532	-1280.56982	1204.94604	-1396.26685	-1500.8634	1289.00659	-1305.24744	-1382.83484	1410.11816	-1552.81519	-1417.75562	1208.65015	-1616.4165	-1441.47974	1098.50171	-1620.8667	-1443.1189	947.51996	-1638.47144	-1400.21863	825.10742	-1594.77246	-1462.43323	829.52576	-1629.05054	-1435.75244	742.13947	-1627.38928	-1360.78247	1416.30334	-1230.40808	-1370.82568	1216.51208	-1140.10254	-1336.70471	1099.05994	-1127.39478	-1277.52271	995.28778	-1117.57556	-1169.3313	895.89355	-1163.51099	-1214.13037	873.68958	-1118.60742	-1148.0686	822.04156	-1123.1792	-1291.37329	971.46869	-1488.82532	-1290.89392	970.2027	-1270.32788	-1452.62415	994.22052	-1462.2832	-1442.84473	995.85431	-1293.45313	-1280.30298	670.16394	-1567.70691	-1219.98169	518.08954	-1549.66406	-1302.3772	279.49268	-1545.56299	-1337.58289	109.658	-1511.79602	-1371.08752	98.13009	-1459.62976	-1206.83801	56.25355	-1536.59766	-1356.62793	631.72748	-1237.52942	-1362.44495	507.30298	-1268.12219	-1446.46997	251.19112	-1287.33325	-1489.69543	73.66898	-1345.56384	-1531.2627	51.93768	-1391.68201	-1339.79822	36.84163	-1342.25098	-1398.7605	1709.30896	-1386.33374	NaN	NaN	NaN	NaN	NaN	NaN	NaN	NaN	NaN	NaN	NaN	NaN	NaN	NaN	NaN	NaN	NaN	NaN	NaN	NaN	NaN	NaN	NaN	NaN
4	0.03	-1287.64783	1671.78735	-1446.3136	-1289.96619	1657.90723	-1314.93372	-1420.45752	1615.97607	-1449.8584	-1421.62952	1608.10718	-1321.42786	-1420.62231	1456.19434	-1391.37244	-1456.42957	1128.54407	-1377.11646	-1309.3678	1380.16223	-1393.02026	-1270.87146	1203.90833	-1396.49402	-1491.15991	1288.14771	-1305.78003	-1373.1593	1408.88721	-1553.62109	-1410.56555	1207.93469	-1616.87341	-1435.73132	1098.08508	-1620.81165	-1440.0166	947.0705	-1637.61792	-1400.41821	824.07336	-1592.47253	-1461.88269	829.72028	-1628.16772	-1436.9314	741.5694	-1625.3147	-1351.27527	1415.59973	-1231.29517	-1360.1958	1216.104	-1140.52747	-1325.01099	1099.17505	-1127.53906	-1263.49622	996.78351	-1118.10034	-1153.01477	900.36072	-1164.73071	-1197.29675	876.82166	-1119.72083	-1129.63171	827.03033	-1124.62683	-1281.6947	970.41406	-1488.70752	-1282.97888	968.91656	-1270.4436	-1442.57239	993.18164	-1463.25696	-1433.48413	994.85608	-1294.36548	-1270.32288	669.23737	-1568.6167	-1209.39441	517.35779	-1550.45874	-1279.91028	274.37036	-1547.19788	-1306.58704	103.17966	-1514.33582	-1339.20837	89.55626	-1462.05396	-1172.12488	56.22422	-1537.35425	-1349.78625	630.67303	-1238.31775	-1357.28162	506.25272	-1268.52808	-1444.03894	250.95895	-1287.69397	-1489.53406	73.81066	-1345.52441	-1531.23132	52.22187	-1391.67371	-1339.67139	36.71865	-1342.26147	-1389.203	1708.24146	-1387.76636	NaN	NaN	NaN	NaN	NaN	NaN	NaN	NaN	NaN	NaN	NaN	NaN	NaN	NaN	NaN	NaN	NaN	NaN	NaN	NaN	NaN	NaN	NaN	NaN
5	0.04	-1277.90491	1670.51013	-1447.54041	-1280.44482	1656.88147	-1316.14319	-1410.75012	1614.65869	-1451.15417	-1411.93787	1607.0885	-1322.68066	-1410.87097	1455.05286	-1392.28345	-1446.65344	1127.38916	-1377.77173	-1299.64941	1378.98523	-1393.74756	-1261.12769	1202.69031	-1396.79907	-1481.42725	1287.12354	-1306.33826	-1363.44019	1407.58203	-1554.38293	-1403.26404	1207.24011	-1617.30469	-1429.98914	1097.78833	-1620.85254	-1436.81836	946.72864	-1636.86023	-1400.17847	823.23712	-1590.36816	-1460.80688	829.8053	-1627.26685	-1437.59058	741.36584	-1623.50439	-1341.66455	1414.77271	-1232.15295	-1349.50818	1215.53271	-1141.00562	-1313.27441	1099.09241	-1127.83582	-1249.63245	998.15564	-1118.65369	-1137.02942	904.66467	-1165.96655	-1180.3938	879.76172	-1121.25085	-1111.94104	831.89111	-1126.18726	-1271.57483	969.40704	-1489.12036	-1273.06909	967.71082	-1270.78491	-1432.35596	992.086	-1464.22351	-1424.00452	993.77502	-1295.30176	-1260.86316	667.92181	-1569.64807	-1199.48718	516.20056	-1551.19714	-1257.74304	269.67496	-1549.21838	-1274.58142	97.02844	-1516.47424	-1307.28552	81.91074	-1464.52283	-1137.70007	57.09273	-1537.91089	-1343.04041	629.65997	-1239.1073	-1352.13635	505.2067	-1268.88538	-1441.72131	250.78044	-1287.84473	-1489.20044	73.97945	-1345.58484	-1531.12964	52.59239	-1391.66211	-1339.37024	36.33211	-1342.46924	-1379.6106	1707.07007	-1389.23914	NaN	NaN	NaN	NaN	NaN	NaN	NaN	NaN	NaN	NaN	NaN	NaN	NaN	NaN	NaN	NaN	NaN	NaN	NaN	NaN	NaN	NaN	NaN	NaN
6	0.05	-1268.17236	1669.15601	-1448.77991	-1270.75732	1655.81824	-1317.41577	-1400.97607	1613.21985	-1452.47705	-1402.20422	1605.88818	-1323.84973	-1401.05957	1453.73486	-1393.16663	-1436.76855	1126.08557	-1378.43372	-1289.81824	1377.70752	-1394.52881	-1251.31836	1201.43872	-1397.172	-1471.54565	1285.86755	-1306.94421	-1353.70044	1406.24634	-1555.20557	-1395.85242	1206.4989	-1617.73523	-1424.16577	1097.39795	-1620.85547	-1432.7655	945.91888	-1635.67896	-1398.91931	822.9657	-1588.55566	-1459.35791	829.97693	-1626.47363	-1437.68115	741.08618	-1621.61816	-1332.06067	1413.79333	-1233.07996	-1338.85474	1214.90979	-1141.43103	-1301.5957	1098.91724	-1128.21143	-1235.8927	999.43872	-1119.25732	-1121.31836	908.77722	-1167.20898	-1163.90637	882.86371	-1122.40002	-1094.2373	836.56049	-1127.31909	-1261.37036	968.1355	-1489.46741	-1263.66003	966.40289	-1271.29724	-1421.60925	990.75293	-1464.92712	-1414.34717	992.65881	-1296.23486	-1252.01257	666.1756	-1570.48291	-1190.24011	514.62726	-1551.87134	-1235.14954	265.07474	-1550.76367	-1242.58362	91.76102	-1518.72314	-1275.13342	75.02373	-1467.43188	-1103.54065	58.54118	-1538.12354	-1336.22192	628.48395	-1239.86353	-1346.64978	503.97726	-1269.34924	-1439.22363	250.61359	-1288.03442	-1488.81433	74.18978	-1345.62732	-1530.98267	53.08913	-1391.6593	-1339.19373	36.17695	-1342.49878	-1369.94006	1705.7854	-1390.68323	NaN	NaN	NaN	NaN	NaN	NaN	NaN	NaN	NaN	NaN	NaN	NaN	NaN	NaN	NaN	NaN	NaN	NaN	NaN	NaN	NaN	NaN	NaN	NaN
